<svg xmlns="http://www.w3.org/2000/svg" viewBox="0 0 340 410" width="340" height="410" role="img" aria-label="Código QR con la tarjeta de contacto de Farid Enrique Jiménez Campo: info@farid.com.co, +1 917 764 5565, https://farid.com.co, Barranquilla, Colombia">
  <defs>
    <linearGradient id="cardBg" x1="0" y1="0" x2="1" y2="1">
      <stop offset="0%" stop-color="#0F172A"/>
      <stop offset="100%" stop-color="#15233B"/>
    </linearGradient>
    <linearGradient id="cardBorde" x1="0" y1="0" x2="1" y2="0">
      <stop offset="0%" stop-color="#38BDF8"/>
      <stop offset="100%" stop-color="#818CF8"/>
    </linearGradient>
  </defs>

  <rect x="2" y="2" width="336" height="406" rx="22" fill="url(#cardBg)" stroke="url(#cardBorde)" stroke-width="2"/>

  <text x="170" y="42" text-anchor="middle" font-family="'Segoe UI', -apple-system, Helvetica, Arial, sans-serif" font-size="17" font-weight="700" fill="#F8FAFC">Farid Enrique Jiménez Campo</text>
  <text x="170" y="64" text-anchor="middle" font-family="'Segoe UI', -apple-system, Helvetica, Arial, sans-serif" font-size="11.5" fill="#94A3B8">AI Engineer · Barranquilla, Colombia</text>

  <rect x="46" y="82" width="248" height="248" rx="12" fill="#FFFFFF"/>
  <g transform="translate(46,82) scale(3.1392)"><path fill="#FFFFFF" d="M0 0h79v79H0z"/><path stroke="#0F172A" d="M1 1.5h7m1 0h1m1 0h1m2 0h1m1 0h6m4 0h1m5 0h3m2 0h1m5 0h3m1 0h3m2 0h1m1 0h1m1 0h1m4 0h4m6 0h7M1 2.5h1m5 0h1m1 0h2m3 0h2m1 0h1m1 0h2m1 0h1m1 0h1m3 0h1m2 0h1m3 0h1m1 0h2m1 0h4m1 0h1m1 0h2m1 0h3m1 0h2m1 0h2m3 0h1m2 0h1m1 0h1m1 0h1m1 0h1m5 0h1M1 3.5h1m1 0h3m1 0h1m1 0h4m1 0h4m1 0h3m1 0h4m1 0h2m2 0h1m7 0h1m1 0h6m7 0h1m1 0h2m3 0h2m2 0h1m2 0h1m1 0h1m1 0h3m1 0h1M1 4.5h1m1 0h3m1 0h1m2 0h2m1 0h2m1 0h1m3 0h2m2 0h1m3 0h1m4 0h3m5 0h3m2 0h2m1 0h1m2 0h1m3 0h1m4 0h2m1 0h3m2 0h1m1 0h1m1 0h3m1 0h1M1 5.5h1m1 0h3m1 0h1m1 0h1m2 0h3m3 0h1m6 0h5m1 0h1m1 0h3m1 0h2m1 0h1m1 0h1m2 0h9m1 0h1m3 0h2m2 0h3m1 0h3m1 0h1m1 0h3m1 0h1M1 6.5h1m5 0h1m2 0h1m1 0h2m1 0h3m1 0h1m2 0h1m1 0h2m3 0h4m3 0h2m1 0h2m1 0h3m2 0h1m3 0h1m1 0h1m2 0h1m2 0h3m1 0h1m2 0h2m3 0h1m5 0h1M1 7.5h7m1 0h1m1 0h1m1 0h1m1 0h1m1 0h1m1 0h1m1 0h1m1 0h1m1 0h1m1 0h1m1 0h1m1 0h1m1 0h1m1 0h1m1 0h1m1 0h1m1 0h1m1 0h1m1 0h1m1 0h1m1 0h1m1 0h1m1 0h1m1 0h1m1 0h1m1 0h1m1 0h1m1 0h1m1 0h1m1 0h1m1 0h1m1 0h7M16 8.5h1m1 0h1m6 0h1m3 0h1m2 0h4m1 0h1m1 0h1m1 0h3m1 0h3m3 0h3m2 0h1m3 0h1m5 0h4M1 9.5h1m2 0h6m2 0h3m2 0h1m1 0h2m3 0h6m3 0h2m1 0h1m2 0h2m6 0h5m3 0h1m1 0h1m2 0h1m1 0h1m2 0h3m1 0h2m2 0h1m1 0h3M9 10.5h3m2 0h1m3 0h1m2 0h1m2 0h1m4 0h1m4 0h1m1 0h2m1 0h5m5 0h2m2 0h3m2 0h2m2 0h1m1 0h1m2 0h1m2 0h1m1 0h2M1 11.5h1m3 0h4m2 0h2m1 0h2m4 0h1m1 0h2m1 0h2m3 0h5m3 0h2m1 0h1m1 0h1m1 0h1m1 0h2m1 0h1m2 0h1m1 0h3m1 0h1m1 0h6m1 0h1m1 0h3m1 0h1m1 0h1M2 12.5h1m2 0h2m1 0h3m3 0h3m1 0h1m1 0h1m1 0h2m3 0h1m4 0h1m1 0h2m1 0h2m4 0h1m1 0h1m1 0h2m1 0h1m1 0h4m3 0h3m3 0h1m1 0h1m5 0h1m2 0h2M1 13.5h2m2 0h1m1 0h1m1 0h1m2 0h2m4 0h1m1 0h1m1 0h3m1 0h1m1 0h2m2 0h1m1 0h3m2 0h2m1 0h2m2 0h1m1 0h2m7 0h1m2 0h4m2 0h1m1 0h2m2 0h3M2 14.5h1m1 0h2m3 0h1m1 0h2m4 0h2m1 0h1m3 0h1m3 0h1m1 0h3m3 0h5m1 0h1m1 0h2m3 0h1m1 0h2m9 0h1m1 0h1m2 0h3m1 0h2m1 0h1m1 0h2M5 15.5h6m2 0h6m2 0h1m1 0h2m1 0h2m3 0h2m3 0h1m1 0h2m2 0h1m1 0h4m1 0h1m1 0h2m1 0h2m2 0h1m2 0h3m1 0h3m3 0h1m1 0h1M2 16.5h1m5 0h1m1 0h3m1 0h4m1 0h2m5 0h1m3 0h1m1 0h4m2 0h2m7 0h3m1 0h1m1 0h1m1 0h1m1 0h1m2 0h2m1 0h5m1 0h1m6 0h1M1 17.5h1m1 0h2m1 0h11m1 0h3m1 0h1m1 0h1m2 0h1m1 0h2m1 0h3m2 0h2m1 0h7m1 0h1m1 0h3m2 0h1m1 0h1m1 0h4m3 0h1m1 0h2m5 0h3M3 18.5h4m2 0h1m1 0h1m1 0h2m1 0h2m1 0h2m2 0h1m4 0h1m4 0h1m2 0h1m4 0h2m3 0h1m2 0h2m1 0h1m2 0h2m3 0h1m2 0h2m1 0h1m1 0h4m1 0h3m1 0h1M2 19.5h2m2 0h2m7 0h2m2 0h3m1 0h2m3 0h4m1 0h2m1 0h2m2 0h1m1 0h1m1 0h1m2 0h3m2 0h3m2 0h1m3 0h1m3 0h1m1 0h1m1 0h1m3 0h1m1 0h3M2 20.5h2m2 0h1m1 0h3m2 0h2m4 0h1m1 0h1m1 0h1m2 0h1m1 0h1m1 0h1m1 0h3m2 0h3m2 0h4m2 0h1m1 0h2m3 0h1m1 0h1m3 0h1m1 0h1m1 0h1m1 0h3m3 0h3m1 0h1M2 21.5h4m1 0h1m2 0h1m2 0h2m3 0h3m1 0h1m3 0h3m2 0h2m1 0h2m1 0h3m2 0h6m1 0h5m6 0h1m2 0h1m2 0h1m1 0h1m1 0h2m2 0h4M1 22.5h1m3 0h2m1 0h1m1 0h2m3 0h2m2 0h3m2 0h3m1 0h1m2 0h2m1 0h1m4 0h1m2 0h1m2 0h5m1 0h3m3 0h1m3 0h3m6 0h1m1 0h4M2 23.5h6m3 0h1m1 0h1m3 0h1m1 0h1m2 0h1m1 0h1m2 0h4m1 0h3m1 0h2m1 0h2m1 0h3m3 0h1m1 0h1m1 0h1m1 0h1m2 0h3m1 0h1m1 0h1m2 0h1m1 0h1m3 0h3m1 0h2M4 24.5h1m1 0h1m1 0h2m1 0h2m1 0h2m6 0h1m2 0h1m2 0h2m1 0h2m2 0h3m1 0h3m5 0h1m4 0h2m1 0h2m1 0h5m1 0h1m1 0h2m2 0h1m2 0h3m1 0h1M2 25.5h1m2 0h7m2 0h1m2 0h1m1 0h1m2 0h1m2 0h5m2 0h3m1 0h3m1 0h1m2 0h2m2 0h5m2 0h3m5 0h1m1 0h1m1 0h1m1 0h6m2 0h2M5 26.5h1m3 0h1m1 0h3m2 0h1m1 0h1m1 0h2m2 0h2m3 0h3m1 0h1m4 0h1m2 0h2m1 0h1m1 0h2m3 0h2m1 0h2m5 0h5m1 0h3m3 0h1m1 0h2M2 27.5h4m1 0h1m1 0h1m1 0h1m1 0h2m5 0h1m2 0h1m1 0h1m1 0h1m1 0h1m2 0h1m1 0h2m1 0h2m2 0h1m2 0h4m1 0h1m1 0h2m1 0h3m1 0h1m1 0h6m2 0h2m1 0h1m1 0h2m2 0h1M3 28.5h3m3 0h2m2 0h5m7 0h1m3 0h1m7 0h3m1 0h4m1 0h2m3 0h5m2 0h2m1 0h1m1 0h3m3 0h1m3 0h3M2 29.5h1m1 0h7m1 0h2m1 0h1m1 0h2m1 0h1m1 0h10m1 0h1m1 0h5m2 0h12m4 0h3m2 0h1m1 0h1m2 0h6M3 30.5h1m1 0h1m2 0h1m5 0h1m1 0h1m3 0h1m3 0h1m1 0h1m3 0h1m1 0h1m2 0h2m1 0h7m1 0h3m2 0h7m1 0h1m2 0h1m2 0h1m1 0h1m2 0h2m1 0h2m1 0h1M1 31.5h1m3 0h1m1 0h5m3 0h1m1 0h1m2 0h1m5 0h2m2 0h1m3 0h1m1 0h4m1 0h3m1 0h1m1 0h2m1 0h1m1 0h5m2 0h2m1 0h1m1 0h2m4 0h1m2 0h1m2 0h1M1 32.5h4m1 0h1m2 0h4m1 0h2m2 0h3m1 0h3m1 0h1m1 0h1m1 0h1m1 0h1m1 0h2m1 0h1m2 0h1m1 0h2m1 0h1m1 0h4m2 0h4m1 0h1m2 0h2m1 0h1m4 0h1m1 0h2m1 0h1m1 0h2M1 33.5h3m1 0h4m1 0h2m3 0h2m3 0h2m1 0h1m1 0h4m2 0h1m1 0h3m1 0h2m1 0h1m2 0h4m2 0h2m2 0h2m3 0h1m1 0h2m1 0h1m1 0h1m2 0h2m1 0h1m1 0h5M1 34.5h2m3 0h1m1 0h4m1 0h3m2 0h1m3 0h4m2 0h1m2 0h4m2 0h3m2 0h2m3 0h1m1 0h2m4 0h1m1 0h2m1 0h1m4 0h1m1 0h2m1 0h2m1 0h3M1 35.5h2m2 0h3m2 0h1m1 0h1m4 0h1m2 0h3m1 0h5m1 0h1m3 0h1m1 0h2m1 0h1m2 0h1m1 0h2m2 0h1m6 0h1m4 0h2m1 0h1m2 0h2m2 0h2m1 0h3M2 36.5h1m1 0h1m1 0h1m1 0h1m1 0h2m1 0h1m1 0h1m1 0h1m3 0h2m1 0h1m2 0h2m1 0h2m3 0h2m1 0h4m1 0h1m2 0h4m1 0h3m1 0h1m3 0h1m1 0h1m1 0h2m1 0h1m1 0h2m1 0h2m1 0h1m1 0h2M1 37.5h1m5 0h2m1 0h2m1 0h2m3 0h1m1 0h1m1 0h1m2 0h1m1 0h2m2 0h2m2 0h1m2 0h1m2 0h2m1 0h1m1 0h3m1 0h2m2 0h1m2 0h2m3 0h1m1 0h1m1 0h1m1 0h2m1 0h7M3 38.5h1m1 0h1m4 0h1m1 0h3m1 0h1m3 0h1m2 0h5m1 0h1m1 0h4m1 0h3m2 0h1m2 0h1m1 0h5m2 0h2m1 0h1m2 0h4m1 0h2m1 0h1m2 0h1m1 0h1m2 0h1m1 0h1M3 39.5h2m2 0h2m1 0h1m1 0h3m3 0h4m1 0h1m1 0h1m2 0h9m1 0h2m1 0h4m2 0h1m1 0h3m1 0h1m2 0h1m2 0h1m4 0h2m2 0h1m1 0h4m3 0h1M1 40.5h1m1 0h3m2 0h1m3 0h2m1 0h2m1 0h1m1 0h1m2 0h2m2 0h2m4 0h1m1 0h1m2 0h2m2 0h2m1 0h1m1 0h2m3 0h4m1 0h1m1 0h1m3 0h1m1 0h1m1 0h1m1 0h2m2 0h1m1 0h1m1 0h1M1 41.5h1m1 0h1m1 0h4m1 0h3m1 0h3m1 0h2m3 0h1m1 0h1m1 0h1m1 0h1m3 0h1m2 0h3m1 0h3m2 0h1m2 0h1m1 0h4m2 0h2m2 0h3m1 0h1m1 0h2m1 0h2m2 0h2m2 0h1M3 42.5h2m4 0h2m2 0h1m2 0h1m1 0h1m1 0h3m1 0h1m1 0h3m5 0h5m1 0h2m3 0h6m3 0h2m1 0h2m3 0h1m1 0h2m2 0h1m1 0h2m1 0h3m1 0h1M1 43.5h1m1 0h1m1 0h1m1 0h1m1 0h3m4 0h4m1 0h1m1 0h1m1 0h6m1 0h1m1 0h2m5 0h2m1 0h3m2 0h3m1 0h2m2 0h1m1 0h3m2 0h2m1 0h2m1 0h1m1 0h4m1 0h1M1 44.5h2m1 0h1m1 0h1m1 0h1m1 0h2m7 0h1m1 0h2m1 0h4m1 0h1m1 0h5m3 0h1m2 0h3m1 0h1m2 0h2m2 0h1m1 0h3m1 0h2m1 0h3m1 0h2m5 0h5M1 45.5h3m3 0h1m1 0h1m2 0h1m1 0h1m1 0h1m1 0h1m1 0h1m2 0h1m4 0h1m1 0h1m1 0h1m1 0h3m1 0h4m1 0h5m2 0h1m1 0h1m10 0h1m1 0h1m6 0h1m1 0h2m1 0h1M1 46.5h1m3 0h1m2 0h1m2 0h2m1 0h1m2 0h2m2 0h4m2 0h2m2 0h1m3 0h5m1 0h4m3 0h2m2 0h1m1 0h3m2 0h1m2 0h2m1 0h1m1 0h1m3 0h4m2 0h1M5 47.5h7m1 0h4m1 0h4m1 0h1m1 0h5m1 0h1m2 0h2m2 0h2m3 0h1m1 0h1m1 0h6m3 0h6m2 0h1m4 0h5m1 0h3M1 48.5h1m2 0h2m3 0h1m1 0h2m6 0h4m1 0h2m3 0h4m2 0h2m1 0h1m4 0h1m2 0h2m3 0h2m1 0h3m5 0h1m1 0h2m1 0h3m3 0h1m1 0h1M4 49.5h2m1 0h1m1 0h2m1 0h1m1 0h4m2 0h3m2 0h1m1 0h1m1 0h3m1 0h1m1 0h3m4 0h1m1 0h2m1 0h1m1 0h1m1 0h1m1 0h2m1 0h2m2 0h5m1 0h4m1 0h1m1 0h4M1 50.5h1m2 0h2m3 0h3m2 0h1m1 0h2m4 0h1m2 0h1m3 0h2m5 0h2m1 0h2m1 0h1m1 0h2m1 0h1m3 0h2m2 0h2m5 0h4m3 0h1m3 0h2M1 51.5h10m3 0h2m2 0h2m1 0h2m1 0h8m3 0h2m9 0h6m1 0h2m3 0h1m1 0h2m2 0h3m2 0h7m1 0h1M4 52.5h1m1 0h1m3 0h1m1 0h1m1 0h1m1 0h1m3 0h3m2 0h1m1 0h2m3 0h1m1 0h2m2 0h2m2 0h2m6 0h1m4 0h1m1 0h1m2 0h1m1 0h2m1 0h3m4 0h1m2 0h1M3 53.5h1m1 0h6m3 0h2m2 0h1m1 0h1m1 0h2m4 0h1m1 0h1m2 0h5m1 0h1m1 0h1m1 0h1m1 0h2m2 0h2m5 0h2m1 0h6m1 0h1m1 0h1m1 0h3m2 0h1m1 0h1M1 54.5h5m2 0h1m2 0h1m1 0h1m1 0h3m5 0h1m2 0h1m1 0h4m3 0h2m2 0h5m2 0h1m1 0h1m1 0h1m4 0h3m4 0h1m2 0h1m1 0h1m3 0h2m2 0h1m1 0h1M1 55.5h7m1 0h1m1 0h1m5 0h3m1 0h1m1 0h1m2 0h3m1 0h2m1 0h1m1 0h1m1 0h1m1 0h1m2 0h1m1 0h1m1 0h1m2 0h2m1 0h4m1 0h1m1 0h1m1 0h1m1 0h3m2 0h2m3 0h1m1 0h1M3 56.5h2m4 0h1m1 0h5m1 0h3m1 0h2m1 0h1m2 0h1m1 0h3m1 0h2m2 0h1m1 0h1m4 0h1m1 0h3m4 0h1m3 0h2m3 0h2m2 0h5m3 0h1m2 0h1M4 57.5h4m1 0h1m4 0h2m2 0h1m2 0h5m2 0h4m1 0h2m2 0h1m1 0h1m7 0h1m2 0h1m1 0h6m1 0h1m1 0h1m1 0h2m1 0h1m1 0h2m4 0h1m1 0h2M1 58.5h1m1 0h1m1 0h1m2 0h1m1 0h1m1 0h3m2 0h1m3 0h1m1 0h2m1 0h3m9 0h7m1 0h2m1 0h3m3 0h5m1 0h1m4 0h4m4 0h1m2 0h1M1 59.5h1m3 0h1m1 0h1m1 0h3m1 0h2m2 0h2m2 0h1m1 0h1m1 0h1m2 0h1m2 0h3m2 0h2m1 0h8m3 0h1m1 0h5m1 0h1m2 0h2m3 0h10m1 0h1M1 60.5h1m1 0h2m3 0h1m1 0h1m3 0h4m1 0h1m1 0h2m1 0h2m4 0h3m1 0h2m4 0h1m4 0h1m2 0h2m2 0h4m1 0h4m1 0h1m1 0h2m1 0h3m2 0h1m1 0h2M1 61.5h1m4 0h2m1 0h2m4 0h2m1 0h8m1 0h1m2 0h2m2 0h7m1 0h6m4 0h1m1 0h1m2 0h2m1 0h3m2 0h2m1 0h1m3 0h3m2 0h1M1 62.5h2m2 0h1m5 0h2m1 0h6m3 0h1m1 0h1m3 0h1m1 0h2m1 0h4m4 0h2m1 0h1m5 0h3m1 0h3m1 0h3m1 0h1m1 0h1m2 0h1m2 0h2m2 0h2M1 63.5h4m2 0h2m2 0h2m2 0h1m5 0h2m1 0h1m1 0h3m1 0h2m2 0h4m1 0h1m1 0h1m3 0h2m3 0h4m2 0h6m3 0h1m2 0h1m2 0h3M2 64.5h3m3 0h1m1 0h2m1 0h2m2 0h1m1 0h2m1 0h4m3 0h1m3 0h7m1 0h2m2 0h1m3 0h4m5 0h4m1 0h1m3 0h1m2 0h6m1 0h1M1 65.5h4m2 0h3m1 0h2m1 0h2m2 0h8m4 0h1m1 0h1m1 0h1m2 0h2m4 0h2m1 0h1m1 0h4m5 0h1m1 0h2m3 0h2m4 0h5m1 0h1M1 66.5h1m1 0h1m2 0h1m1 0h2m1 0h2m1 0h2m2 0h2m1 0h3m2 0h1m4 0h1m1 0h4m1 0h1m1 0h1m1 0h1m1 0h1m11 0h2m1 0h6m2 0h1m1 0h1m1 0h1m2 0h1M2 67.5h1m2 0h4m1 0h3m2 0h3m2 0h4m1 0h5m1 0h1m2 0h1m2 0h3m1 0h4m2 0h2m2 0h3m1 0h4m3 0h1m1 0h2m3 0h1m1 0h1m1 0h2M5 68.5h1m2 0h1m1 0h2m1 0h3m1 0h1m1 0h1m1 0h4m2 0h1m3 0h3m1 0h1m5 0h2m2 0h3m2 0h1m1 0h1m1 0h2m2 0h1m1 0h1m1 0h4m1 0h1m5 0h3m1 0h1M2 69.5h4m1 0h1m2 0h1m3 0h2m1 0h1m1 0h1m1 0h2m1 0h7m1 0h3m3 0h1m3 0h1m2 0h7m2 0h1m5 0h3m4 0h7m3 0h1M9 70.5h1m1 0h4m2 0h1m1 0h1m1 0h1m3 0h1m3 0h1m1 0h1m3 0h2m1 0h2m1 0h1m1 0h2m2 0h1m3 0h3m1 0h2m1 0h3m1 0h2m2 0h2m1 0h1m3 0h1m1 0h2M1 71.5h7m1 0h2m1 0h3m2 0h1m3 0h1m3 0h1m1 0h1m1 0h4m1 0h2m1 0h1m4 0h1m2 0h1m1 0h1m1 0h1m1 0h2m7 0h1m1 0h2m2 0h1m2 0h1m1 0h1m1 0h1m3 0h1M1 72.5h1m5 0h1m1 0h2m1 0h1m1 0h1m2 0h3m2 0h1m2 0h1m3 0h2m3 0h1m2 0h3m2 0h1m1 0h4m3 0h3m1 0h2m2 0h1m6 0h1m1 0h2m3 0h1M1 73.5h1m1 0h3m1 0h1m1 0h1m5 0h1m2 0h2m1 0h1m3 0h6m4 0h1m3 0h4m1 0h10m4 0h1m1 0h2m2 0h1m1 0h1m1 0h8m1 0h1M1 74.5h1m1 0h3m1 0h1m1 0h3m3 0h1m1 0h1m1 0h1m2 0h2m3 0h1m1 0h3m1 0h3m1 0h8m1 0h1m2 0h3m1 0h3m1 0h4m1 0h1m3 0h3m4 0h1m1 0h1M1 75.5h1m1 0h3m1 0h1m3 0h1m2 0h3m3 0h1m2 0h1m1 0h1m1 0h2m1 0h1m1 0h3m1 0h4m1 0h2m3 0h3m1 0h1m2 0h5m4 0h3m2 0h1m2 0h5m1 0h2M1 76.5h1m5 0h1m2 0h3m1 0h2m1 0h2m5 0h2m11 0h2m1 0h4m1 0h1m1 0h1m2 0h1m1 0h1m1 0h4m1 0h2m7 0h1m3 0h1M1 77.5h7m1 0h1m1 0h1m1 0h1m1 0h3m1 0h1m1 0h1m2 0h2m2 0h1m2 0h1m1 0h2m1 0h1m4 0h2m2 0h5m1 0h1m1 0h2m3 0h4m2 0h1m3 0h1m1 0h2m1 0h4"/></g>

  <text x="170" y="361" text-anchor="middle" font-family="'Segoe UI', -apple-system, Helvetica, Arial, sans-serif" font-size="14" font-weight="600" fill="#38BDF8">Escanea y guarda mi contacto</text>
  <text x="170" y="383" text-anchor="middle" font-family="'Segoe UI', -apple-system, Helvetica, Arial, sans-serif" font-size="11.5" fill="#64748B">Scan to save my contact card</text>
</svg>
